<?xml version="1.0" encoding="utf-8"?>
<!-- Generator: Adobe Illustrator 25.2.3, SVG Export Plug-In . SVG Version: 6.00 Build 0)  -->
<svg version="1.1" id="Layer_1" xmlns="http://www.w3.org/2000/svg" xmlns:xlink="http://www.w3.org/1999/xlink" x="0px" y="0px"
	 viewBox="0 0 1366 768" style="enable-background:new 0 0 1366 768;" xml:space="preserve">
<style type="text/css">
	.st0{fill:#FFFFFF;stroke:#000000;stroke-width:14;stroke-miterlimit:10;}
	.st1{fill:none;stroke:#000000;stroke-width:14;stroke-miterlimit:10;}
	.st2{fill:none;stroke:#000000;stroke-width:14;stroke-linecap:round;stroke-miterlimit:10;}
</style>
<path class="st0" d="M692.5,423.5c0,0,19-22.55-2-59s2-47.54,2-47.54s67.34,0.1,113-35.46s44-57,41-96s-41.41-126.25-141-115
	c-17.17,0.55-23.11-20.44-23-53c-11.72,18.43-20.43,38.01-7,66c-12.19,36.24-137,43-141,116s65.07,100.07,147,117
	c0,0-21.84,9.71,1.08,51.35c22.92,41.65,1.17,55.65,1.17,55.65H692.5z"/>
<g>
	<g>
		<path d="M683.28,17.96c1.93,0,1.93-3,0-3C681.35,14.96,681.35,17.96,683.28,17.96L683.28,17.96z"/>
	</g>
</g>
<path class="st1" d="M675,40c31.41,107.44,39.4,201.14,17,277"/>
<path class="st2" d="M700,152c26.97-3.58,45.3-14.25,55-32"/>
<path class="st2" d="M705,231c-46,6.71-87.25-6.82-126-31"/>
<path class="st2" d="M703,178c-26.43,4.68-50.2-0.12-72-12"/>
<path class="st2" d="M705,263c28.25,10.58,63.64,2.19,108-30"/>
<path class="st2" d="M705,209c35.79,2.58,70.5-10.99,104-43"/>
</svg>