<?xml version="1.0" encoding="utf-8"?>
<!-- Generator: Adobe Illustrator 25.2.3, SVG Export Plug-In . SVG Version: 6.00 Build 0)  -->
<svg version="1.1" id="Layer_1" xmlns="http://www.w3.org/2000/svg" xmlns:xlink="http://www.w3.org/1999/xlink" x="0px" y="0px"
	 viewBox="0 0 1366 768" style="enable-background:new 0 0 1366 768;" xml:space="preserve">
<style type="text/css">
	.st0{fill:none;stroke:#000000;stroke-width:9;stroke-linecap:round;stroke-linejoin:round;stroke-miterlimit:10;}
</style>
<path class="st0" d="M508.5,585.5c8,0,16,0,24,0c-5.33-46.67-10.67-93.33-16-140c61.74-11.96,85.71-43.12,93-54
	c54.4-81.16-47-225-66-241s-32.7-59.38-30-79c-4.76,21.82-9,93-59,168c-29.04,43.56-76.93,90.26-43,151
	c20.96,37.53,61.71,53.9,89,61C503.17,496.17,505.83,540.83,508.5,585.5z"/>
<path class="st0" d="M517.5,426.5c-1-91.33-2-182.67-3-274"/>
</svg>