<?xml version="1.0" encoding="utf-8"?>
<!-- Generator: Adobe Illustrator 25.2.3, SVG Export Plug-In . SVG Version: 6.00 Build 0)  -->
<svg version="1.1" id="Layer_1" xmlns="http://www.w3.org/2000/svg" xmlns:xlink="http://www.w3.org/1999/xlink" x="0px" y="0px"
	 viewBox="0 0 1366 768" style="enable-background:new 0 0 1366 768;" xml:space="preserve">
<style type="text/css">
	.st0{fill:none;stroke:#000000;stroke-width:9;stroke-linecap:round;stroke-linejoin:round;stroke-miterlimit:10;}
</style>
<path class="st0" d="M527.5,543.5c15.71,6.06,22.61,3.68,26,1c16.38-12.93-13.51-60.86-11-141c0.23-7.44,0.69-13.44,1-17
	c2.32,0.1,6.22,0.33,11,1c54.17,7.63,69.14,50.6,107,49c1.8-0.08,23.97-1.32,34-17c10.24-16,3.8-40.76-10-54
	c-8.49-8.15-18.45-10.67-24-12c-26.05-6.26-41.1,7.68-51-1c-6.46-5.67-8.22-18.78-3-25c9.44-11.25,34.05,9.24,60-2
	c14.14-6.12,27.62-21.21,27-37c-0.73-18.76-21.21-35.04-40-38c-25.2-3.96-37.33,17.62-61,10c-1.34-0.43-18.42-6.18-21-19
	c-2.29-11.37,7.9-23.05,16-29c23.37-17.17,44.83,1.94,70-13c14.74-8.75,28.25-27.69,24-44c-4.84-18.56-31.73-30.03-51-25
	c-22.65,5.91-22.82,31.48-43,35c-21.98,3.83-28.94-10.6-26-26c2.88-15.07,12.62-22.38,19-40c7.11-19.65-17.43-62.05-54-62
	c-31.96,0.04-56.49,32.48-54,55c2.94,26.61,42.85,32.4,42,56c-0.55,15.32-18.05,31.83-35,33c-26.84,1.85-34.67-35.98-67-39
	c-22.81-2.13-49.4,13.85-52,32c-2.89,20.21,23.85,43.95,49,49c22.53,4.52,35.54-7.63,56,3c2.61,1.36,17.97,9.33,18,21
	c0.03,10.04-11.3,18.37-20,22c-23.49,9.79-37.28-10.79-62-5c-19.92,4.66-41.37,25.15-40,48c1.15,19.12,18.14,37.69,36,40
	c26.07,3.37,38.61-29.87,65-25c12.74,2.35,25.4,12.96,26,24c0.72,13.21-16.02,23.37-22,27c-27.89,16.93-46.66,3.5-63,17
	c-17.2,14.21-20.45,48.95-7,62c16.95,16.44,62.29,0.29,84-20c27.82-26,37-40,37-40c2.98-4.55,4.37-7.19,6-7
	C530.71,391.23,532.9,432.45,527.5,543.5z"/>
<line class="st0" x1="529.5" y1="367.5" x2="530.5" y2="187.5"/>
<line class="st0" x1="530.5" y1="293.5" x2="636.5" y2="293.5"/>
<line class="st0" x1="530.5" y1="273.5" x2="422.5" y2="310.5"/>
<line class="st0" x1="530.5" y1="220.5" x2="424.5" y2="189.5"/>
<line class="st0" x1="530.5" y1="204.5" x2="619.5" y2="180.5"/>
<line class="st0" x1="530.5" y1="337.5" x2="636.5" y2="396.5"/>
<line class="st0" x1="618.5" y1="384.5" x2="650.5" y2="379.5"/>
<line class="st0" x1="615.5" y1="293.5" x2="634.5" y2="308.5"/>
<line class="st0" x1="625.5" y1="291.5" x2="648.5" y2="277.5"/>
<line class="st0" x1="619.5" y1="180.5" x2="630.5" y2="153.5"/>
<line class="st0" x1="440.5" y1="194.5" x2="407.5" y2="204.5"/>
<line class="st0" x1="424.5" y1="189.5" x2="403.5" y2="166.5"/>
<line class="st0" x1="444.5" y1="303.5" x2="406.5" y2="291.5"/>
<line class="st0" x1="526.5" y1="367.5" x2="438.5" y2="426.5"/>
<line class="st0" x1="530.5" y1="187.5" x2="543.5" y2="121.5"/>
<line class="st0" x1="519.5" y1="71.5" x2="543.5" y2="121.5"/>
</svg>